<?xml version="1.0" encoding="UTF-8" standalone="no"?>
<svg width="573px" height="176px" viewBox="0 0 573 176" version="1.1" xmlns="http://www.w3.org/2000/svg" xmlns:xlink="http://www.w3.org/1999/xlink">
    <!-- Generator: Sketch 40.2 (33826) - http://www.bohemiancoding.com/sketch -->
    <title>logo</title>
    <desc>Created with Sketch.</desc>
    <defs>
        <linearGradient x1="50%" y1="12.755102%" x2="50%" y2="91.3265306%" id="linearGradient-1">
            <stop stop-color="#EEAA27" offset="0%"></stop>
            <stop stop-color="#E4151A" offset="64.7959184%"></stop>
            <stop stop-color="#7E1608" offset="100%"></stop>
        </linearGradient>
    </defs>
    <g id="Page-1" stroke="none" stroke-width="1" fill="none" fill-rule="evenodd">
        <g id="inferno-comp-02b" transform="translate(-434.000000, -243.000000)">
            <g id="hero" transform="translate(0.000000, 42.000000)">
                <g id="logo" transform="translate(434.000000, 201.000000)">
                    <path d="M21,138.169107 L32.0131091,138.169107 L32.0131091,78.6966821 L21,78.6966821 L21,138.169107 Z M120.562174,78.696527 L120.562174,116.561221 L78.8830116,73 L78.8830116,138.168952 L89.8976749,138.168952 L89.8976749,99.9367894 L131.576838,143.499561 L131.576838,78.696527 L120.562174,78.696527 Z M209.493574,89.0964876 L209.493574,78.6973023 L178.522896,78.6973023 L178.522896,138.169727 L189.539114,138.169727 L189.539114,110.989509 L208.829928,110.989509 L208.829928,100.588773 L189.539114,100.588773 L189.539114,89.0964876 L209.493574,89.0964876 Z M288.660981,89.0964876 L288.660981,78.6973023 L254.745081,78.6973023 L254.745081,138.169727 L288.660981,138.169727 L288.660981,127.768991 L265.759745,127.768991 L265.759745,110.915085 L287.997335,110.915085 L287.997335,100.51435 L265.759745,100.51435 L265.759745,89.0964876 L288.660981,89.0964876 Z M356.909153,113.366887 C364.041408,111.137272 368.786401,104.61588 368.786401,96.5331377 C368.786401,90.2892852 365.60494,84.5493442 360.457407,81.5320765 C355.440428,78.6962169 349.539105,78.6962169 344.795666,78.6962169 L334.354505,78.6962169 L334.354505,138.170192 L345.367614,138.170192 L345.367614,115.081737 L361.475413,138.170192 L374.950385,138.170192 L356.909153,113.366887 Z M358.214687,96.8261817 C358.214687,102.576976 354.540542,104.922879 345.533914,104.922879 L345.367614,104.922879 L345.367614,88.9496555 C354.369579,88.9853169 358.214687,91.3467243 358.214687,96.8261817 Z M456.601726,78.696527 L456.601726,116.561221 L414.924117,73 L414.924117,138.168952 L425.937226,138.168952 L425.937226,99.9367894 L467.616389,143.499561 L467.616389,78.696527 L456.601726,78.696527 Z M541.867684,77.5203198 C524.701471,77.5203198 510.735369,91.3879675 510.735369,108.432584 C510.735369,125.767144 524.40928,139.346399 541.867684,139.346399 C559.326089,139.346399 573,125.767144 573,108.432584 C573,91.3879675 559.033898,77.5203198 541.867684,77.5203198 Z M541.867684,128.798366 C530.772202,128.798366 521.748478,119.662836 521.748478,108.432584 C521.748478,96.8224605 530.396084,88.0668023 541.867684,88.0668023 C553.339284,88.0668023 561.986891,96.8224605 561.986891,108.432584 C561.986891,119.662836 552.961612,128.798366 541.867684,128.798366 Z M21.6126683,175.623384 L21.6126683,157.546136 L26.9840069,157.546136 C29.4163405,157.546136 32.0274078,158.446975 32.0274078,162.704641 C32.0274078,166.810358 28.8133082,167.661581 26.9575854,167.661581 L23.9206653,167.661581 L23.9206653,175.623384 L21.6126683,175.623384 Z M23.9206653,165.658338 L26.4571308,165.658338 C27.4083053,165.658338 29.668122,165.408708 29.668122,162.579051 C29.668122,159.825367 27.6103522,159.549379 27.1098976,159.549379 L23.9206653,159.549379 L23.9206653,165.658338 Z M51.4652501,167.311013 L51.4652501,175.623229 L49.1572531,175.623229 L49.1572531,157.545981 L55.4067185,157.545981 C58.6192638,157.545981 59.7491721,159.800404 59.7491721,162.053277 C59.7491721,164.180559 58.567975,165.808581 56.4356033,166.183802 L56.4356033,166.234968 C58.5182404,166.560573 59.2704765,167.261397 59.3963672,170.892662 C59.4227887,171.667911 59.6714618,174.497568 60.0242667,175.623229 L57.6136921,175.623229 C56.9624794,174.371978 57.1116833,172.018323 56.9111906,169.615052 C56.7355652,167.411796 54.9544443,167.311013 54.1742325,167.311013 L51.4652501,167.311013 Z M51.4652501,165.307771 L54.929577,165.307771 C56.5848072,165.307771 57.3883321,163.881313 57.3883321,162.302907 C57.3883321,161.00204 56.7355652,159.549224 54.9544443,159.549224 L51.4652501,159.549224 L51.4652501,165.307771 Z M77.4037176,175.62447 L79.7132688,175.62447 L79.7132688,157.547222 L77.4037176,157.547222 L77.4037176,175.62447 Z M107.705154,159.849245 L98.720285,173.620762 L107.907201,173.620762 L107.907201,175.624004 L96.5879133,175.624004 L96.5879133,173.019169 L105.37229,159.599615 L105.37229,159.548449 L96.8878752,159.548449 L96.8878752,157.546757 L107.705154,157.546757 L107.705154,159.849245 Z M126.691033,175.623694 L124.530686,175.623694 L124.530686,157.546446 L128.273216,157.546446 L132.839475,172.718062 L132.88921,172.718062 L137.506758,157.546446 L141.32389,157.546446 L141.32389,175.623694 L139.012784,175.623694 L139.012784,159.548138 L138.961496,159.548138 L133.893227,175.623694 L131.709567,175.623694 L126.740768,159.548138 L126.691033,159.548138 L126.691033,175.623694 Z M178.866221,175.623694 L178.866221,157.546446 L181.175772,157.546446 L181.175772,173.620452 L187.826223,173.620452 L187.826223,175.623694 L178.866221,175.623694 Z M203.949097,175.623694 L203.949097,157.546446 L213.286771,157.546446 L213.286771,159.548138 L206.258648,159.548138 L206.258648,165.357852 L212.783208,165.357852 L212.783208,167.361094 L206.258648,167.361094 L206.258648,173.620452 L213.435975,173.620452 L213.435975,175.623694 L203.949097,175.623694 Z M242.987973,157.546136 L242.987973,175.623384 L239.826717,175.623384 L232.674257,159.949407 L232.622969,159.949407 L232.622969,175.623384 L230.565199,175.623384 L230.565199,157.546136 L233.827479,157.546136 L240.878915,173.018549 L240.931758,173.018549 L240.931758,157.546136 L242.987973,157.546136 Z M262.904201,170.240833 L262.904201,170.766451 C262.904201,173.219338 264.459962,173.996137 265.939566,173.996137 C267.77353,173.996137 269.178533,173.219338 269.178533,171.065697 C269.178533,167.060763 261.046924,167.511958 261.046924,162.077465 C261.046924,158.872587 263.330053,157.170141 266.366973,157.170141 C269.680542,157.170141 271.537819,158.773355 271.385507,162.454235 L268.976486,162.454235 C269.002908,160.475801 268.376563,159.173383 266.191348,159.173383 C264.811212,159.173383 263.406209,159.874208 263.406209,161.827835 C263.406209,165.807961 271.537819,165.232727 271.537819,170.966466 C271.537819,174.771386 268.903439,175.99938 265.914699,175.99938 C260.571336,176.048996 260.571336,171.968087 260.619517,170.240833 L262.904201,170.240833 Z M318.690276,157.546136 L318.690276,159.549379 L313.923524,159.549379 L313.923524,175.623384 L311.612419,175.623384 L311.612419,159.549379 L306.845667,159.549379 L306.845667,157.546136 L318.690276,157.546136 Z M335.015509,175.623694 L335.015509,157.546446 L344.353183,157.546446 L344.353183,159.548138 L337.32506,159.548138 L337.32506,165.357852 L343.84962,165.357852 L343.84962,167.361094 L337.32506,167.361094 L337.32506,173.620452 L344.502387,173.620452 L344.502387,175.623694 L335.015509,175.623694 Z M369.487349,162.52928 C369.51377,161.5013 369.437614,160.476421 368.958918,159.899636 C368.481777,159.324402 367.404711,159.122837 366.926016,159.122837 C365.020558,159.122837 364.266768,160.274857 364.19372,160.524487 C364.11601,160.726051 363.66529,161.177246 363.66529,164.281341 L363.66529,169.114242 C363.66529,173.545563 365.120028,174.071181 366.902703,174.071181 C367.60365,174.071181 369.737576,173.820001 369.763997,170.289518 L372.148151,170.289518 C372.246066,176 368.208236,176 367.028593,176 C364.767223,176 361.306004,175.849602 361.306004,168.838253 L361.306004,163.729364 C361.306004,158.622026 363.562712,157.170761 367.126508,157.170761 C370.716726,157.170761 372.098416,159.023605 371.873056,162.52928 L369.487349,162.52928 Z M389.550759,175.623694 L389.550759,157.546446 L391.86031,157.546446 L391.86031,165.357852 L398.209245,165.357852 L398.209245,157.546446 L400.52035,157.546446 L400.52035,175.623694 L398.209245,175.623694 L398.209245,167.361094 L391.86031,167.361094 L391.86031,175.623694 L389.550759,175.623694 Z M431.22759,157.546136 L431.22759,175.623384 L428.06478,175.623384 L420.910766,159.949407 L420.861031,159.949407 L420.861031,175.623384 L418.804816,175.623384 L418.804816,157.546136 L422.063987,157.546136 L429.118532,173.018549 L429.169821,173.018549 L429.169821,157.546136 L431.22759,157.546136 Z M449.285297,169.013614 L449.285297,163.078311 C449.285297,159.474955 451.142574,157.170916 454.981465,157.170916 C458.82191,157.170916 460.680741,159.474955 460.680741,163.078311 L460.680741,169.013614 C460.680741,174.02017 458.82191,175.998605 454.981465,175.998605 C451.142574,175.998605 449.285297,174.02017 449.285297,169.013614 Z M458.321455,169.114397 L458.321455,163.005437 C458.321455,159.223774 455.710388,159.098184 454.981465,159.098184 C454.254096,159.098184 451.644583,159.223774 451.644583,163.005437 L451.644583,169.114397 C451.644583,173.069715 452.797804,174.071336 454.981465,174.071336 C457.16668,174.071336 458.321455,173.069715 458.321455,169.114397 Z M478.635404,175.623694 L478.635404,157.546446 L480.946509,157.546446 L480.946509,173.620452 L487.598514,173.620452 L487.598514,175.623694 L478.635404,175.623694 Z M503.644611,169.013614 L503.644611,163.078311 C503.644611,159.474955 505.501888,157.170916 509.342333,157.170916 C513.181224,157.170916 515.040055,159.474955 515.040055,163.078311 L515.040055,169.013614 C515.040055,174.02017 513.181224,175.998605 509.342333,175.998605 C505.501888,175.998605 503.644611,174.02017 503.644611,169.013614 Z M512.680769,169.114397 L512.680769,163.005437 C512.680769,159.223774 510.069702,159.098184 509.342333,159.098184 C508.614964,159.098184 506.005451,159.223774 506.005451,163.005437 L506.005451,169.114397 C506.005451,173.069715 507.158673,174.071336 509.342333,174.071336 C511.524439,174.071336 512.680769,173.069715 512.680769,169.114397 Z M541.67947,162.378571 C541.67947,160.251289 540.801343,159.097719 538.466925,159.097719 C537.739556,159.097719 535.128488,159.223309 535.128488,163.004972 L535.128488,169.113931 C535.128488,173.06925 536.283264,174.072422 538.466925,174.072422 C540.125263,174.072422 541.22875,173.619677 541.705891,173.269264 L541.705891,167.86113 L538.367455,167.86113 L538.367455,165.859438 L544.013888,165.859438 L544.013888,174.647656 C542.534284,175.447713 540.801343,175.99969 538.466925,175.99969 C534.628034,175.99969 532.770757,174.021255 532.770757,169.013149 L532.770757,163.079396 C532.770757,159.47449 534.628034,157.170451 538.466925,157.170451 C542.381971,157.170451 544.237694,158.598459 544.090045,162.378571 L541.67947,162.378571 Z M570.228849,157.546136 L572.563268,157.546136 L567.617782,168.737626 L567.617782,175.623384 L565.308231,175.623384 L565.308231,168.737626 L560.438901,157.546136 L563.025101,157.546136 L566.565584,166.284739 L570.228849,157.546136 Z" id="Combined-Shape" fill="#FFFFFF"></path>
                    <path d="M26.1923187,8.57099533 C26.1923187,22.1966008 0,24.966335 0,47.0343631 L0,47.0343631 C0,66.9584806 18.5554282,71 18.5554282,71 L18.5554282,71 C16.8201968,69.799472 12.1044871,67.5641663 11.1962995,58.6725139 L11.1962995,58.6725139 C9.77784147,44.8207444 25.1795803,36.971615 25.1795803,36.971615 L25.1795803,36.971615 C25.1795803,36.971615 20.7946881,41.3198499 23.2055985,47.0514029 L23.2055985,47.0514029 C25.7772364,53.1795174 31.8458648,52.1307981 36.3212637,56.4991709 L36.3212637,56.4991709 C40.7951021,60.8721909 37.1124168,68.8979142 37.1124168,68.8979142 L37.1124168,68.8979142 C37.1124168,68.8979142 49,61.5506829 49,48.8932452 L49,48.8932452 C49,36.2342584 42.5053661,31.4476371 42.5053661,31.4476371 L42.5053661,31.4476371 C43.4681698,34.7734869 44.2327951,37.7399529 42.6317633,40.484902 L42.6317633,40.484902 C41.1867775,42.9587642 37.5696315,42.3561766 36.9329639,40.3919579 L36.9329639,40.3919579 C35.9327091,37.3046647 40.6437375,35.5836497 38.5730072,23.0547847 L38.5730072,23.0547847 C35.8250374,6.40075053 23.2165218,0 23.2165218,0 L23.2165218,0 C23.2165218,0 26.1923187,4.99109831 26.1923187,8.57099533" id="Fill-35" fill="url(#linearGradient-1)"></path>
                </g>
            </g>
        </g>
    </g>
</svg>