<?xml version="1.0" encoding="UTF-8" standalone="no"?>
<svg width="24px" height="24px" viewBox="0 0 24 24" version="1.1" xmlns="http://www.w3.org/2000/svg" xmlns:xlink="http://www.w3.org/1999/xlink">
    <!-- Generator: Sketch 40.2 (33826) - http://www.bohemiancoding.com/sketch -->
    <title>Fill 2</title>
    <desc>Created with Sketch.</desc>
    <defs></defs>
    <g id="Page-1" stroke="none" stroke-width="1" fill="none" fill-rule="evenodd">
        <g id="inferno-comp-02b" transform="translate(-330.000000, -6069.000000)" fill="#FF7A00">
            <g id="tech" transform="translate(20.000000, 5583.000000)">
                <g id="image" transform="translate(660.500000, 552.500000) scale(-1, 1) translate(-660.500000, -552.500000) translate(239.000000, 361.000000)">
                    <g id="power" transform="translate(725.000000, 125.000000)">
                        <path d="M36.3333327,-6.29999704e-07 L33.666666,-6.29999704e-07 L33.666666,13.3333327 L36.3333327,13.3333327 L36.3333327,-6.29999704e-07 L36.3333327,-6.29999704e-07 Z M42.7733326,2.8933328 L40.8799991,4.78666624 C42.9866656,6.47999954 44.3333327,9.07999992 44.3333327,11.9999994 C44.3333327,17.1599991 40.1599991,21.3333327 34.9999994,21.3333327 C29.8399995,21.3333327 25.666666,17.1599991 25.666666,11.9999994 C25.666666,9.07999865 27.013333,6.47999954 29.1066659,4.7733326 L27.2266661,2.8933328 C24.6399994,5.09333293 22.9999994,8.34666633 22.9999994,11.9999994 C22.9999994,18.6266676 28.373333,23.9999994 34.9999994,23.9999994 C41.6266651,23.9999994 46.9999994,18.6266651 46.9999994,11.9999994 C46.9999994,8.34666633 45.3599999,5.09333293 42.7733326,2.8933328 L42.7733326,2.8933328 Z" id="Fill-2" transform="translate(34.999999, 11.999999) scale(-1, 1) translate(-34.999999, -11.999999) "></path>
                    </g>
                </g>
            </g>
        </g>
    </g>
</svg>