<?xml version="1.0" encoding="UTF-8" standalone="no"?>
<svg width="69px" height="69px" viewBox="0 0 69 69" version="1.1" xmlns="http://www.w3.org/2000/svg" xmlns:xlink="http://www.w3.org/1999/xlink">
    <!-- Generator: Sketch 40.2 (33826) - http://www.bohemiancoding.com/sketch -->
    <title>icon-uc-reactive</title>
    <desc>Created with Sketch.</desc>
    <defs>
        <linearGradient x1="50%" y1="2.04081535%" x2="50%" y2="102.040815%" id="linearGradient-1">
            <stop stop-color="#EEAA27" offset="0%"></stop>
            <stop stop-color="#E4151A" offset="51.7857143%"></stop>
            <stop stop-color="#7E1608" offset="100%"></stop>
        </linearGradient>
    </defs>
    <g id="Page-1" stroke="none" stroke-width="1" fill="none" fill-rule="evenodd">
        <g id="inferno-comp-02b" transform="translate(-576.000000, -2633.000000)" fill="url(#linearGradient-1)">
            <g id="use-cases" transform="translate(128.000000, 2517.000000)">
                <g id="reactive" transform="translate(448.000000, 116.000000)">
                    <path d="M34.5000003,68.9978445 C43.7144477,68.9978445 52.3779888,65.40888 58.8939714,58.8918158 C65.4110314,52.3758333 69,43.7133655 69,34.4989222 C69,25.2844788 65.4110355,16.6220111 58.8939714,10.1060286 C52.3779888,3.58896599 43.7144477,-7.10542736e-15 34.5000003,-7.10542736e-15 C25.2844753,-7.10542736e-15 16.6220118,3.58896599 10.1060282,10.1060276 C3.58896607,16.6220122 0,25.2844748 0,34.4989222 C0,43.7133696 3.58896607,52.3758333 10.1060272,58.8918158 C16.6220118,65.40888 25.2844753,68.9978445 34.5000003,68.9978445 L34.5000003,68.9978445 Z M11.6304488,11.6304493 C17.7389136,5.52090544 25.8601765,2.15618264 34.5000003,2.15618264 C43.1387465,2.15618264 51.2610869,5.52090595 57.3695487,11.6304493 C63.4790961,17.738915 66.8438174,25.8601759 66.8438174,34.4989222 C66.8438174,43.1376684 63.4790961,51.2589273 57.3695487,57.367393 C51.2610869,63.4769405 43.1387465,66.8416618 34.5000003,66.8416618 C25.8601765,66.8416618 17.7389136,63.4769405 11.6304498,57.367393 C5.52090552,51.2589314 2.15618272,43.1376684 2.15618272,34.4989222 C2.15618272,25.8601759 5.52090552,17.738915 11.6304488,11.6304493 Z M33.421909,18.3275524 L35.5780916,18.3275524 L35.5780916,42.0455615 L33.421909,42.0455615 L33.421909,18.3275524 Z M33.421909,46.3579267 L35.5780916,46.3579267 L35.5780916,50.670292 L33.421909,50.670292 L33.421909,46.3579267 Z" id="icon-uc-reactive"></path>
                </g>
            </g>
        </g>
    </g>
</svg>