<?xml version="1.0" encoding="UTF-8" standalone="no"?>
<svg width="39px" height="56px" viewBox="0 0 39 56" version="1.1" xmlns="http://www.w3.org/2000/svg" xmlns:xlink="http://www.w3.org/1999/xlink">
    <!-- Generator: Sketch 40.2 (33826) - http://www.bohemiancoding.com/sketch -->
    <title>Fill 35</title>
    <desc>Created with Sketch.</desc>
    <defs>
        <linearGradient x1="50%" y1="12.755102%" x2="50%" y2="91.3265306%" id="linearGradient-1">
            <stop stop-color="#EEAA27" offset="0%"></stop>
            <stop stop-color="#E4151A" offset="64.7959184%"></stop>
            <stop stop-color="#7E1608" offset="100%"></stop>
        </linearGradient>
    </defs>
    <g id="Page-1" stroke="none" stroke-width="1" fill="none" fill-rule="evenodd">
        <g id="inferno-comp-02b" transform="translate(-254.000000, -1201.000000)" fill="url(#linearGradient-1)">
            <g id="hero" transform="translate(0.000000, 42.000000)">
                <g id="inferno-tech" transform="translate(106.000000, 534.000000)">
                    <g id="copy" transform="translate(148.000000, 625.000000)">
                        <path d="M20.8469475,6.76022167 C20.8469475,17.5071781 0,19.6917572 0,37.0975259 L0,37.0975259 C0,52.8123227 14.7686061,56 14.7686061,56 L14.7686061,56 C13.3875036,55.0531047 9.63418362,53.2900467 8.9113404,46.2769123 L8.9113404,46.2769123 C7.78236362,35.3515731 20.0408904,29.1607104 20.0408904,29.1607104 L20.0408904,29.1607104 C20.0408904,29.1607104 16.5508742,32.5903041 18.4697621,37.1109657 L18.4697621,37.1109657 C20.5165759,41.9444081 25.3467087,41.1172492 28.9087609,44.5627264 L28.9087609,44.5627264 C32.469571,48.0118689 29.5384542,54.3420168 29.5384542,54.3420168 L29.5384542,54.3420168 C29.5384542,54.3420168 39,48.5470175 39,38.5636863 L39,38.5636863 C39,28.5791334 33.8308016,24.8037701 33.8308016,24.8037701 L33.8308016,24.8037701 C34.5971147,27.4269756 35.2056941,29.7667234 33.9314035,31.9317537 L33.9314035,31.9317537 C32.7813127,33.882969 29.9023598,33.4076886 29.3956243,31.8584457 L29.3956243,31.8584457 C28.5995032,29.4233975 32.3490972,28.0659772 30.7009649,18.1840555 L30.7009649,18.1840555 C28.5138053,5.04847929 18.4784561,0 18.4784561,0 L18.4784561,0 C18.4784561,0 20.8469475,3.93664092 20.8469475,6.76022167" id="Fill-35"></path>
                    </g>
                </g>
            </g>
        </g>
    </g>
</svg>