<?xml version="1.0" encoding="UTF-8" standalone="no"?>
<svg width="69px" height="69px" viewBox="0 0 69 69" version="1.1" xmlns="http://www.w3.org/2000/svg" xmlns:xlink="http://www.w3.org/1999/xlink">
    <!-- Generator: Sketch 40.2 (33826) - http://www.bohemiancoding.com/sketch -->
    <title>icon-uc-proactive</title>
    <desc>Created with Sketch.</desc>
    <defs>
        <linearGradient x1="50%" y1="2.04081535%" x2="50%" y2="102.040815%" id="linearGradient-1">
            <stop stop-color="#EEAA27" offset="0%"></stop>
            <stop stop-color="#E4151A" offset="51.7857143%"></stop>
            <stop stop-color="#7E1608" offset="100%"></stop>
        </linearGradient>
    </defs>
    <g id="Page-1" stroke="none" stroke-width="1" fill="none" fill-rule="evenodd">
        <g id="inferno-comp-02b" transform="translate(-178.000000, -2633.000000)" fill="url(#linearGradient-1)">
            <g id="use-cases" transform="translate(128.000000, 2517.000000)">
                <g id="proactive" transform="translate(50.000000, 116.000000)">
                    <path d="M44.2307692,42.7149478 L35.5982713,33.380972 L35.5982713,12.3846154 L33.6153846,12.3846154 L33.6153846,34.2685961 L42.8288669,44.2307692 L44.2307692,42.7149478 Z M3.53846154,33.6153846 L7.07692308,33.6153846 L7.07692308,35.3846154 L3.53846154,35.3846154 L3.53846154,33.6153846 Z M60.1538462,33.6153846 L63.6923077,33.6153846 L63.6923077,35.3846154 L60.1538462,35.3846154 L60.1538462,33.6153846 Z M33.6153846,60.1538462 L35.3846154,60.1538462 L35.3846154,63.6923077 L33.6153846,63.6923077 L33.6153846,60.1538462 Z M33.6153846,3.53846154 L35.3846154,3.53846154 L35.3846154,7.07692308 L33.6153846,7.07692308 L33.6153846,3.53846154 Z M34.5,0 L34.5,2.15625 C52.3343435,2.15625 66.84375,16.6656564 66.84375,34.5 C66.84375,52.3343435 52.3343435,66.84375 34.5,66.84375 C16.6656564,66.84375 2.15625,52.3343435 2.15625,34.5 C2.15625,27.7455475 4.21546884,21.2789526 8.11289072,15.7923758 L12.9375,10.9666874 L12.9375,20.484375 L15.09375,20.484375 L15.09375,8.625 L14.015625,7.546875 L2.15625,7.546875 L2.15625,9.703125 L11.1521248,9.703125 L6.52481254,14.3315158 L6.41053135,14.46736 C2.21662499,20.3366727 0,27.2636251 0,34.5 C0,53.5235161 15.4764838,69 34.5,69 C53.5235161,69 69,53.5235161 69,34.5 C69,15.4764838 53.5235161,0 34.5,0 Z" id="icon-uc-proactive"></path>
                </g>
            </g>
        </g>
    </g>
</svg>