<?xml version="1.0" encoding="UTF-8" standalone="no"?>
<svg width="23px" height="18px" viewBox="0 0 23 18" version="1.1" xmlns="http://www.w3.org/2000/svg" xmlns:xlink="http://www.w3.org/1999/xlink">
    <!-- Generator: Sketch 40.2 (33826) - http://www.bohemiancoding.com/sketch -->
    <title>Artboard</title>
    <desc>Created with Sketch.</desc>
    <defs></defs>
    <g id="Page-1" stroke="none" stroke-width="1" fill="none" fill-rule="evenodd">
        <g id="Artboard" fill="#FF7A00">
            <g id="replay">
                <path d="M2.6616083,9.0010967 L2.6616083,8.7760968 C2.78279456,3.90951173 6.84028883,0 11.827999,0 C16.8942554,0 21,4.03024357 21,9.0010967 C21,13.9719493 16.8942554,18 11.827999,18 C9.6982637,18 7.7379642,17.2865857 6.18049687,16.0924382 L7.75816203,14.4417069 C8.89820992,15.2626826 10.3053162,15.7510979 11.827999,15.7510979 C15.6274109,15.7510979 18.7075615,12.7284155 18.7075615,9.00109879 C18.7075615,5.27378205 15.6274119,2.25109912 11.827999,2.25109912 C8.10601129,2.25109912 5.07523354,5.15195273 4.95516956,8.77609889 L4.95516956,9.0010967 L7.95340626,9.0010967 L4.03280777,13.2749989 L0,9.0010967 L2.6616083,9.0010967 Z" id="Fill-2"></path>
            </g>
        </g>
    </g>
</svg>