<?xml version="1.0" encoding="UTF-8" standalone="no"?>
<svg width="69px" height="69px" viewBox="0 0 69 69" version="1.1" xmlns="http://www.w3.org/2000/svg" xmlns:xlink="http://www.w3.org/1999/xlink">
    <!-- Generator: Sketch 40.2 (33826) - http://www.bohemiancoding.com/sketch -->
    <title>icon-uc-comfort</title>
    <desc>Created with Sketch.</desc>
    <defs>
        <linearGradient x1="50%" y1="2.04081535%" x2="50%" y2="102.040815%" id="linearGradient-1">
            <stop stop-color="#EEAA27" offset="0%"></stop>
            <stop stop-color="#E4151A" offset="51.7857143%"></stop>
            <stop stop-color="#7E1608" offset="100%"></stop>
        </linearGradient>
    </defs>
    <g id="Page-1" stroke="none" stroke-width="1" fill="none" fill-rule="evenodd">
        <g id="inferno-comp-02b" transform="translate(-974.000000, -2633.000000)" fill="url(#linearGradient-1)">
            <g id="use-cases" transform="translate(128.000000, 2517.000000)">
                <g id="comfort" transform="translate(846.000000, 116.000000)">
                    <path d="M20.888072,33.4043307 L33.12,33.4043307 L33.12,20.32649 L20.2217193,7.42820932 L22.1437641,5.50616453 L33.12,16.4824004 L33.12,0 L35.8381818,0 L35.8381818,16.5242186 L46.8562359,5.50616453 L48.7782807,7.42820932 L35.8381818,20.3683082 L35.8381818,33.4043307 L48.3891793,33.4043307 L61.5717907,20.2217193 L63.4938355,22.1437641 L52.2332688,33.4043307 L69,33.4043307 L69,36.1225125 L52.7601121,36.1225125 L63.4938355,46.8562359 L61.5717907,48.7782807 L48.9160225,36.1225125 L35.8381818,36.1225125 L35.8381818,48.6316918 L48.7782807,61.5717907 L46.8562359,63.4938355 L35.8381818,52.4757814 L35.8381818,69 L33.12,69 L33.12,52.5175996 L22.1437641,63.4938355 L20.2217193,61.5717907 L33.12,48.67351 L33.12,36.1225125 L20.3612288,36.1225125 L7.70546057,48.7782807 L5.78341578,46.8562359 L16.5171392,36.1225125 L0,36.1225125 L0,33.4043307 L17.0439824,33.4043307 L5.78341578,22.1437641 L7.70546057,20.2217193 L20.888072,33.4043307 Z" id="icon-uc-comfort"></path>
                </g>
            </g>
        </g>
    </g>
</svg>