<?xml version="1.0" encoding="UTF-8" standalone="no"?>
<svg width="193px" height="30px" viewBox="0 0 193 30" version="1.1" xmlns="http://www.w3.org/2000/svg" xmlns:xlink="http://www.w3.org/1999/xlink">
    <!-- Generator: Sketch 40.2 (33826) - http://www.bohemiancoding.com/sketch -->
    <title>Group</title>
    <desc>Created with Sketch.</desc>
    <defs>
        <linearGradient x1="6.82524917%" y1="-36.2110345%" x2="47.4112957%" y2="30.1117241%" id="linearGradient-1">
            <stop stop-color="#EB2227" offset="0%"></stop>
            <stop stop-color="#EE782B" offset="35.67%"></stop>
            <stop stop-color="#F8EB32" offset="100%"></stop>
        </linearGradient>
        <linearGradient x1="-0.00859481583%" y1="49.9821429%" x2="100.040382%" y2="49.9821429%" id="linearGradient-2">
            <stop stop-color="#096BB4" offset="15.45%"></stop>
            <stop stop-color="#0679A5" offset="33.59%"></stop>
            <stop stop-color="#039A78" offset="74.65%"></stop>
            <stop stop-color="#03AF4D" offset="100%"></stop>
        </linearGradient>
        <linearGradient x1="43.6086587%" y1="56.2961832%" x2="82.6719864%" y2="-64.6041985%" id="linearGradient-3">
            <stop stop-color="#0090D5" offset="17.71%"></stop>
            <stop stop-color="#0087C5" offset="22.97%"></stop>
            <stop stop-color="#4F72A7" offset="36.97%"></stop>
            <stop stop-color="#756092" offset="50.83%"></stop>
            <stop stop-color="#8A4D82" offset="64.28%"></stop>
            <stop stop-color="#973C77" offset="77.2%"></stop>
            <stop stop-color="#9E2E70" offset="89.36%"></stop>
            <stop stop-color="#A0286E" offset="100%"></stop>
        </linearGradient>
        <linearGradient x1="44.4534805%" y1="34.6889313%" x2="55.5855688%" y2="65.4816794%" id="linearGradient-4">
            <stop stop-color="#000000" offset="0%"></stop>
            <stop stop-color="#000000" stop-opacity="0" offset="100%"></stop>
        </linearGradient>
        <linearGradient x1="61.7507042%" y1="28.292437%" x2="44.3769014%" y2="60.4327731%" id="linearGradient-5">
            <stop stop-color="#000000" offset="0.464401%"></stop>
            <stop stop-color="#070C0D" stop-opacity="0.9131" offset="9.115091%"></stop>
            <stop stop-color="#26201F" stop-opacity="0.7582" offset="24.53%"></stop>
            <stop stop-color="#4F332C" stop-opacity="0.5533" offset="44.93%"></stop>
            <stop stop-color="#883D2E" stop-opacity="0.3059" offset="69.55%"></stop>
            <stop stop-color="#E02425" stop-opacity="0.02542764" offset="97.47%"></stop>
            <stop stop-color="#ED1C24" stop-opacity="0" offset="100%"></stop>
        </linearGradient>
        <linearGradient x1="0.00901639344%" y1="50.0366071%" x2="100.021175%" y2="50.0366071%" id="linearGradient-6">
            <stop stop-color="#096BB4" offset="15.45%"></stop>
            <stop stop-color="#0679A5" offset="33.59%"></stop>
            <stop stop-color="#039A78" offset="74.65%"></stop>
            <stop stop-color="#03AF4D" offset="100%"></stop>
        </linearGradient>
    </defs>
    <g id="Page-1" stroke="none" stroke-width="1" fill="none" fill-rule="evenodd">
        <g id="inferno-comp-02b" transform="translate(-844.000000, -5203.000000)">
            <g id="line-miner-copy" transform="translate(123.000000, 4888.000000)">
                <g id="copy" transform="translate(720.000000, 45.000000)">
                    <g id="prizm_logo" transform="translate(1.000000, 270.000000)">
                        <g id="Group">
                            <g id="_x34__color_black_Logo">
                                <polygon id="Shape" fill="url(#linearGradient-1)" points="178.698926 2.32768421 178.698926 2.32768421 166.179413 12.2352632 153.659899 2.268 136.967215 2.268 131.548321 0 131.548321 9.54947368 133.230046 5.78936842 153.659899 14.2048421 153.659899 9.37042105 153.659899 7.28147368 166.117126 17.2487368 166.117126 17.3084211 166.179413 17.3084211 166.179413 17.3084211 166.179413 17.2487368 178.698926 7.28147368 178.698926 17.01 187.792702 17.01 187.792702 2.32768421"></polygon>
                                <polygon id="Shape" fill="#000000" points="178.698926 2.32768421 178.698926 2.32768421 166.179413 12.2352632 153.659899 2.268 151.978173 2.268 153.659899 7.28147368 166.117126 17.2487368 166.117126 17.3084211 166.179413 17.3084211 166.179413 17.3084211 166.179413 17.2487368 178.698926 7.28147368 178.698926 17.01 187.792702 17.01 187.792702 2.32768421"></polygon>
                                <path d="M30.7070654,2.20831579 L0.249144547,2.20831579 L0.249144547,16.9503158 L9.28063436,16.9503158 L9.28063436,5.25221053 L23.6687319,5.25221053 C24.4161656,5.25221053 27.2813279,5.07315789 27.2813279,7.04273684 C27.2813279,8.47515789 24.6653101,8.35578947 23.6687319,8.35578947 L10.9623601,8.35578947 L19.4955608,11.4593684 L30.7070654,11.4593684 C32.824794,11.4593684 35.7522424,9.84789474 35.7522424,6.92336842 C35.6899563,3.04389474 32.4510772,2.20831579 30.7070654,2.20831579" id="Shape" fill="#000000"></path>
                                <polygon id="Shape" fill="#000000" points="80.7851192 13.7870526 89.8788952 17.7858947 89.8788952 2.14863158 80.7851192 2.14863158"></polygon>
                                <path d="M78.5428183,16.9503158 L65.8364464,11.4593684 L70.3210483,11.4593684 C72.4387769,11.4593684 75.677656,10.4447368 75.677656,6.92336842 C75.677656,3.402 72.5633492,2.20831579 70.8193374,2.20831579 L39.8631275,2.20831579 L39.8631275,16.9503158 L49.0191896,16.9503158 L49.0191896,5.25221053 L63.4072871,5.25221053 C64.1547208,5.25221053 66.2724494,5.49094737 66.2724494,6.804 C66.2724494,8.11705263 64.4661514,8.35578947 63.4072871,8.35578947 L50.5140568,8.35578947 L50.4517707,8.35578947 L50.4517707,8.35578947 L50.4517707,8.35578947 L50.5140568,8.35578947 L69.1998978,16.9503158 L78.5428183,16.9503158 L78.5428183,16.9503158 Z" id="Shape" fill="#000000"></path>
                                <polygon id="Shape" fill="url(#linearGradient-2)" points="137.465504 11.4593684 139.832377 15.1001053 123.326551 15.1001053 108.066447 18.144 153.722185 18.144"></polygon>
                                <polygon id="Shape" fill="url(#linearGradient-3)" points="96.9795148 2.14863158 96.9795148 5.25221053 112.364191 5.25221053 92.6817713 17.7858947 126.87686 11.1609474 115.042494 11.1609474 129.368306 2.14863158"></polygon>
                                <polygon id="Shape" fill="url(#linearGradient-4)" points="96.9795148 2.14863158 96.9795148 5.25221053 112.364191 5.25221053 92.6817713 17.7858947 126.87686 11.1609474 115.042494 11.1609474 129.368306 2.14863158"></polygon>
                                <polygon id="Shape" fill="url(#linearGradient-5)" points="136.967215 2.268 131.548321 0 131.548321 9.54947368 133.230046 5.78936842 153.659899 14.2048421 153.659899 9.37042105 153.659899 7.28147368 153.659899 2.268"></polygon>
                            </g>
                            <g id="_x34__color" transform="translate(188.726994, 1.790526)" fill="#000000">
                                <g id="Group">
                                    <polygon id="Shape" points="1.68172569 0.537157895 1.68172569 0.716210526 1.24572273 0.716210526 1.24572273 1.90989474 1.05886432 1.90989474 1.05886432 0.716210526 0.56057523 0.716210526 0.56057523 0.537157895"></polygon>
                                    <path d="M1.8685841,0.537157895 L2.18001478,0.537157895 L2.61601774,1.73084211 L3.0520207,0.537157895 L3.36345138,0.537157895 L3.36345138,1.90989474 L3.17659297,1.90989474 L3.17659297,1.134 L3.17659297,1.01463158 L3.17659297,0.775894737 L2.74059001,1.96957895 L2.49144547,1.96957895 L2.05544251,0.775894737 L2.05544251,0.835578947 L2.05544251,1.01463158 L2.05544251,1.19368421 L2.05544251,2.02926316 L1.8685841,2.02926316 L1.8685841,0.537157895 L1.8685841,0.537157895 Z" id="Shape"></path>
                                </g>
                            </g>
                            <g id="Layer_1" transform="translate(0.000000, 10.743158)">
                                <polygon id="Shape" fill="url(#linearGradient-6)" points="137.278645 0.417789474 139.583232 4.05852632 123.139692 4.05852632 107.879589 7.10242105 153.473041 7.10242105"></polygon>
                                <g id="Group" transform="translate(0.000000, 10.743158)" fill="#000000">
                                    <polygon id="Shape" points="0 7.81863158 0 0.656526316 1.55715342 0.656526316 1.55715342 6.62494737 3.86174047 6.62494737 3.86174047 7.81863158"></polygon>
                                    <polygon id="Shape" points="12.0835105 7.81863158 12.0835105 0.656526316 16.1321094 0.656526316 16.1321094 1.79052632 13.6406639 1.79052632 13.6406639 3.58105263 15.945251 3.58105263 15.945251 4.65536842 13.6406639 4.65536842 13.6406639 6.74431579 16.2566817 6.74431579 16.2566817 7.81863158 12.0835105 7.81863158"></polygon>
                                    <polygon id="Shape" points="24.7898824 7.81863158 24.7898824 0.656526316 26.907611 0.656526316 28.9007674 5.61031579 28.9007674 5.61031579 28.9007674 0.656526316 30.3333486 0.656526316 30.3333486 7.81863158 28.277906 7.81863158 26.2224635 2.56642105 26.2224635 2.56642105 26.2224635 7.81863158 24.7898824 7.81863158"></polygon>
                                    <path d="M41.1711363,7.938 C39.2402661,7.938 38.8665493,6.86368421 38.9911215,5.61031579 L40.548275,5.61031579 C40.548275,6.26684211 40.548275,6.86368421 41.4202809,6.86368421 C41.91857,6.86368421 42.2300007,6.56526316 42.2300007,6.02810526 C42.2300007,4.71505263 39.1156938,4.65536842 39.1156938,2.50673684 C39.1156938,1.37273684 39.6762691,0.477473684 41.5448532,0.477473684 C43.0397204,0.477473684 43.7871541,1.134 43.7248679,2.62610526 L42.2300007,2.62610526 C42.2300007,2.08894737 42.1677145,1.55178947 41.482567,1.55178947 C40.9842779,1.55178947 40.6728472,1.79052632 40.6728472,2.32768421 C40.6728472,3.70042105 43.7871541,3.58105263 43.7871541,5.78936842 C43.7871541,7.75894737 42.3545729,7.938 41.1711363,7.938 L41.1711363,7.938 Z" id="Shape"></path>
                                    <polygon id="Shape" points="66.6461662 0.716210526 66.6461662 1.90989474 64.9021544 1.90989474 64.9021544 7.87831579 63.345001 7.87831579 63.345001 1.90989474 61.6009892 1.90989474 61.6009892 0.716210526"></polygon>
                                    <polygon id="Shape" points="74.8679363 7.81863158 74.8679363 0.656526316 78.9165351 0.656526316 78.9165351 1.79052632 76.4250897 1.79052632 76.4250897 3.58105263 78.7296767 3.58105263 78.7296767 4.65536842 76.4250897 4.65536842 76.4250897 6.74431579 79.0411074 6.74431579 79.0411074 7.81863158 74.8679363 7.81863158"></polygon>
                                    <path d="M87.4497359,4.23757895 C87.4497359,2.32768421 87.4497359,0.537157895 90.0034675,0.537157895 C91.622907,0.537157895 92.2457684,1.37273684 92.1834823,2.92452632 L90.6263288,2.92452632 C90.6263288,1.96957895 90.4394704,1.61147368 90.0034675,1.61147368 C89.1314616,1.61147368 89.0068893,2.38736842 89.0068893,4.23757895 C89.0068893,6.08778947 89.1314616,6.86368421 90.0034675,6.86368421 C90.7509011,6.86368421 90.688615,5.96842105 90.688615,5.43126316 L92.2457684,5.43126316 C92.2457684,7.34115789 91.4360486,7.938 90.0034675,7.938 C87.4497359,7.938 87.4497359,6.14747368 87.4497359,4.23757895 L87.4497359,4.23757895 Z" id="Shape"></path>
                                    <polygon id="Shape" points="104.204707 3.52136842 104.204707 0.656526316 105.76186 0.656526316 105.76186 7.81863158 104.204707 7.81863158 104.204707 4.65536842 102.398409 4.65536842 102.398409 7.81863158 100.841255 7.81863158 100.841255 0.656526316 102.398409 0.656526316 102.398409 3.52136842"></polygon>
                                    <polygon id="Shape" points="114.606491 7.81863158 114.606491 0.656526316 116.72422 0.656526316 118.717376 5.61031579 118.717376 5.61031579 118.717376 0.656526316 120.149958 0.656526316 120.149958 7.81863158 118.094515 7.81863158 116.039073 2.56642105 116.039073 2.56642105 116.039073 7.81863158 114.606491 7.81863158"></polygon>
                                    <path d="M128.932303,4.23757895 C128.932303,2.32768421 128.932303,0.537157895 131.486034,0.537157895 C134.039766,0.537157895 134.039766,2.32768421 134.039766,4.23757895 C134.039766,6.08778947 134.039766,7.938 131.486034,7.938 C128.932303,7.938 128.932303,6.14747368 128.932303,4.23757895 L128.932303,4.23757895 Z M132.482613,4.23757895 C132.482613,2.38736842 132.35804,1.61147368 131.486034,1.61147368 C130.614029,1.61147368 130.489456,2.38736842 130.489456,4.23757895 C130.489456,6.08778947 130.614029,6.86368421 131.486034,6.86368421 C132.420327,6.86368421 132.482613,6.08778947 132.482613,4.23757895 L132.482613,4.23757895 Z" id="Shape"></path>
                                    <polygon id="Shape" points="142.822111 7.81863158 142.822111 0.656526316 144.379265 0.656526316 144.379265 6.62494737 146.683852 6.62494737 146.683852 7.81863158"></polygon>
                                    <path d="M154.843336,4.23757895 C154.843336,2.32768421 154.843336,0.537157895 157.397067,0.537157895 C159.950799,0.537157895 159.950799,2.32768421 159.950799,4.23757895 C159.950799,6.08778947 159.950799,7.938 157.397067,7.938 C154.843336,7.938 154.843336,6.14747368 154.843336,4.23757895 L154.843336,4.23757895 Z M158.393646,4.23757895 C158.393646,2.38736842 158.269073,1.61147368 157.397067,1.61147368 C156.525061,1.61147368 156.400489,2.38736842 156.400489,4.23757895 C156.400489,6.08778947 156.525061,6.86368421 157.397067,6.86368421 C158.331359,6.86368421 158.393646,6.08778947 158.393646,4.23757895 L158.393646,4.23757895 Z" id="Shape"></path>
                                    <path d="M172.158882,2.86484211 C172.158882,2.20831579 172.034309,1.61147368 171.22459,1.61147368 C170.228011,1.61147368 170.228011,2.86484211 170.228011,4.23757895 C170.228011,6.44589474 170.477156,6.86368421 171.349162,6.86368421 C171.598306,6.86368421 171.909737,6.804 172.096596,6.74431579 L172.096596,5.13284211 L171.286876,5.13284211 L171.286876,4.05852632 L173.716035,4.05852632 L173.716035,7.69926316 C173.280032,7.75894737 172.221168,7.938 171.598306,7.938 C168.982289,7.938 168.670858,6.92336842 168.670858,4.17789474 C168.670858,2.38736842 168.733144,0.537157895 171.286876,0.537157895 C172.844029,0.537157895 173.778321,1.37273684 173.653749,2.86484211 L172.158882,2.86484211 L172.158882,2.86484211 Z" id="Shape"></path>
                                    <polygon id="Shape" points="183.930962 5.37157895 182.000091 0.716210526 183.681817 0.716210526 184.802967 3.76010526 185.986404 0.716210526 187.605844 0.716210526 185.550401 5.37157895 185.550401 7.81863158 183.993248 7.81863158 183.993248 5.37157895"></polygon>
                                </g>
                            </g>
                        </g>
                    </g>
                </g>
            </g>
        </g>
    </g>
</svg>