<?xml version="1.0" encoding="utf-8"?>
<!-- Generator: Adobe Illustrator 20.1.0, SVG Export Plug-In . SVG Version: 6.00 Build 0)  -->
<svg version="1.1" id="fill_1_" xmlns="http://www.w3.org/2000/svg" xmlns:xlink="http://www.w3.org/1999/xlink" x="0px" y="0px"
	 viewBox="0 0 1544 728" style="enable-background:new 0 0 1544 728;" xml:space="preserve">
<style type="text/css">
	.st0{opacity:0.78;fill:#F47A20;}
</style>
<path class="st0" d="M1508.8,67.3c2.5,1.6,3.9,4.6,3.5,7.6c-5.4,35.2-36.7,238.3-51.7,321.7c-15.4,85.5-50.4,259.9-59.9,292.3
	c-0.9,3.1-3.6,5.3-6.8,5.5c-8.4,0.5-28.4-0.8-69.8-14.3c-54.5-17.7-152.3-73.8-177.6-91.8c-3.1-2.2-4.1-6.3-2.3-9.7
	c3.8-7.2,9.5-19.8,7.5-26c-3-9,3-36.5,13.5-55.5c10.5-19,21-95.2,25.5-133.1s18-112.9,18-126.4s-12-105,4.5-115.5
	s39-46.5,217.5-73.5l55.5-7.9c3.9-0.6,7.6,1.9,8.5,5.7C1495.9,52.5,1499.6,61.3,1508.8,67.3z"/>
</svg>
