<?xml version="1.0" encoding="utf-8"?>
<!-- Generator: Adobe Illustrator 20.1.0, SVG Export Plug-In . SVG Version: 6.00 Build 0)  -->
<svg version="1.1" xmlns="http://www.w3.org/2000/svg" xmlns:xlink="http://www.w3.org/1999/xlink" x="0px" y="0px"
	 viewBox="0 0 1544 728" style="enable-background:new 0 0 1544 728;" xml:space="preserve">
<style type="text/css">
	.st0{opacity:0.2;fill:#F47A20;}
	.st1{fill:none;stroke:#F47A20;stroke-width:2;stroke-miterlimit:10;}
</style>
<g id="fill_1_">
	<path id="fill" class="st0" d="M463.6,444.1c24,0,97.5,0,114,0c16.5,0,60.5,43.6,60.5,55.5c0,14.4-18.5,13.5-41,13.5
		c-22.5,0-115.5,0-133.5,0c-18,0-29.6-10.1-30-22.5C433.2,478.6,433.2,444.1,463.6,444.1z"/>
</g>
<g id="outline_1_">
	<path id="outline" class="st1" d="M463.6,444.1c24,0,97.5,0,114,0c16.5,0,60.5,43.6,60.5,55.5c0,14.4-18.5,13.5-41,13.5
		c-22.5,0-115.5,0-133.5,0c-18,0-29.6-10.1-30-22.5C433.2,478.6,433.2,444.1,463.6,444.1z"/>
</g>
</svg>
