<?xml version="1.0" encoding="UTF-8" standalone="no"?>
<svg width="22px" height="31px" viewBox="0 0 22 31" version="1.1" xmlns="http://www.w3.org/2000/svg" xmlns:xlink="http://www.w3.org/1999/xlink">
    <!-- Generator: Sketch 40.2 (33826) - http://www.bohemiancoding.com/sketch -->
    <title>Fill 2</title>
    <desc>Created with Sketch.</desc>
    <defs></defs>
    <g id="Page-1" stroke="none" stroke-width="1" fill="none" fill-rule="evenodd">
        <g id="inferno-comp-02b" transform="translate(-214.000000, -6605.000000)" fill="#FF7A00">
            <path d="M215.970738,6635.43389 C216.453149,6633.89068 217.180693,6631.71888 218.156514,6628.57905 C222.41021,6627.90488 224.170144,6629.11493 226.871327,6624.29045 C224.679267,6624.96148 222.036224,6623.04583 222.177648,6622.21451 C222.320642,6621.38476 228.326416,6622.81325 232.259555,6617.22817 C227.301885,6618.32193 225.716373,6615.91441 226.35592,6615.55139 C227.831436,6614.71222 232.210842,6615.20252 234.545897,6612.92857 C235.749567,6611.75781 236.313687,6608.91184 235.82342,6607.89666 C235.235727,6606.66933 231.649862,6604.83854 229.673081,6605.0114 C227.696297,6605.1827 224.595986,6612.53884 223.675165,6612.48227 C222.757482,6612.42413 222.57049,6609.18528 224.176429,6606.17588 C222.484065,6606.92548 219.382181,6609.25443 218.409503,6611.24551 C216.597714,6614.94951 218.579211,6623.4497 217.944378,6623.75143 C217.307973,6624.05473 215.169339,6619.85256 214.531363,6617.94634 C213.659253,6620.86774 213.638825,6623.79386 216.186015,6627.68015 C215.225909,6630.23068 214.701071,6633.16623 214.620931,6634.65914 C214.583219,6635.85191 215.758603,6636.10806 215.970738,6635.43389 L215.970738,6635.43389 Z" id="Fill-2"></path>
        </g>
    </g>
</svg>