<?xml version="1.0" encoding="UTF-8" standalone="no"?>
<svg width="24px" height="36px" viewBox="0 0 24 36" version="1.1" xmlns="http://www.w3.org/2000/svg" xmlns:xlink="http://www.w3.org/1999/xlink">
    <!-- Generator: Sketch 40.2 (33826) - http://www.bohemiancoding.com/sketch -->
    <title>spec-icon-usb</title>
    <desc>Created with Sketch.</desc>
    <defs></defs>
    <g id="Page-1" stroke="none" stroke-width="1" fill="none" fill-rule="evenodd">
        <g id="inferno-comp-02b" transform="translate(-311.000000, -6916.000000)" fill="#FF7A00">
            <g id="tech" transform="translate(20.000000, 5583.000000)">
                <g id="tech-features" transform="translate(275.000000, 835.000000)">
                    <g id="usb" transform="translate(16.000000, 492.000000)">
                        <path d="M16.8850082,15.919579 L16.8850082,22.5326317 L18.5384975,22.5326317 L18.5384975,25.839158 L13.5780296,25.839158 L13.5780296,12.6130527 L16.8850082,12.6130527 L11.9245402,6 L6.96407229,12.6130527 L10.2710509,12.6130527 L10.2710509,25.839158 L5.31058298,25.839158 L5.31058298,22.4169038 C6.46802517,21.8051966 7.29476983,20.6313797 7.29476983,19.2261053 C7.29476983,17.2256568 5.65781578,15.5889267 3.65709366,15.5889267 C1.65637152,15.5889267 0.0194174757,17.2256568 0.0194174757,19.2261053 C0.0194174757,20.6313797 0.846162134,21.8051949 2.00360434,22.4169038 L2.00360434,25.839158 C2.00360434,27.6742795 3.4752096,29.1456844 5.31058298,29.1456844 L10.2710509,29.1456844 L10.2710509,34.1881357 C9.09707335,34.7998444 8.28686406,36.0067258 8.28686406,37.4120002 C8.28686406,39.4289801 9.923818,41.0491803 11.9245402,41.0491803 C13.9252623,41.0491803 15.5622164,39.4289832 15.5622164,37.4120002 C15.5622164,36.0067258 14.752007,34.7998444 13.5780296,34.1881357 L13.5780296,29.1456844 L18.5384975,29.1456844 C20.3738716,29.1456844 21.8454761,27.6742795 21.8454761,25.839158 L21.8454761,22.5326317 L23.4989655,22.5326317 L23.4989655,15.919579 L16.8850082,15.919579 L16.8850082,15.919579 Z" id="spec-icon-usb"></path>
                    </g>
                </g>
            </g>
        </g>
    </g>
</svg>