<?xml version="1.0" encoding="UTF-8" standalone="no"?>
<svg width="12px" height="24px" viewBox="0 0 12 24" version="1.1" xmlns="http://www.w3.org/2000/svg" xmlns:xlink="http://www.w3.org/1999/xlink">
    <!-- Generator: Sketch 40.2 (33826) - http://www.bohemiancoding.com/sketch -->
    <title>Fill 2</title>
    <desc>Created with Sketch.</desc>
    <defs></defs>
    <g id="Page-1" stroke="none" stroke-width="1" fill="none" fill-rule="evenodd">
        <g id="inferno-comp-02b" transform="translate(-235.000000, -6770.000000)" fill="#FF7A00">
            <path d="M245.404,6772.4 L243.4,6772.4 L243.4,6770 L238.6,6770 L238.6,6772.4 L236.596,6772.4 C235.72,6772.4 235,6773.12 235,6773.996 L235,6792.392 C235,6793.28 235.72,6794 236.596,6794 L245.392,6794 C246.28,6794 247,6793.28 247,6792.404 L247,6773.996 C247,6773.12 246.28,6772.4 245.404,6772.4 L245.404,6772.4 Z M239.333333,6791 L239.333333,6784.65385 L237,6784.65385 L241.666667,6776 L241.666667,6782.34615 L244,6782.34615 L239.333333,6791 L239.333333,6791 Z" id="Fill-2"></path>
        </g>
    </g>
</svg>