<?xml version="1.0" encoding="UTF-8" standalone="no"?>
<svg width="25px" height="25px" viewBox="0 0 25 25" version="1.1" xmlns="http://www.w3.org/2000/svg" xmlns:xlink="http://www.w3.org/1999/xlink">
    <!-- Generator: Sketch 40.2 (33826) - http://www.bohemiancoding.com/sketch -->
    <title>spec-icon-led</title>
    <desc>Created with Sketch.</desc>
    <defs></defs>
    <g id="Page-1" stroke="none" stroke-width="1" fill="none" fill-rule="evenodd">
        <g id="inferno-comp-02b" transform="translate(-310.000000, -6794.000000)" fill="#FF7A00">
            <g id="tech" transform="translate(20.000000, 5583.000000)">
                <g id="tech-features" transform="translate(275.000000, 835.000000)">
                    <g id="led" transform="translate(15.000000, 351.000000)">
                        <path d="M6.53964315,29.8984797 L4.57600658,27.9457524 L3.03782494,29.4839341 L4.99055217,31.4366613 L6.53964315,29.8984797 L6.53964315,29.8984797 Z M3.52873382,36.0730249 L0.256006549,36.0730249 L0.256006549,38.2548431 L3.52873382,38.2548431 L3.52873382,36.0730249 L3.52873382,36.0730249 Z M13.3469156,25.2184797 L11.1650975,25.2184797 L11.1650975,28.4366613 L13.3469156,28.4366613 L13.3469156,25.2184795 L13.3469156,25.2184797 L13.3469156,25.2184797 Z M21.4741891,29.4839341 L19.9360075,27.9457524 L17.9832793,29.8984797 L19.5214609,31.4366613 L21.4741891,29.4839341 L21.4741891,29.4839341 Z M17.9723719,44.4293884 L19.9251002,46.3930239 L21.4632819,44.8548423 L19.4996464,42.902114 L17.972374,44.4293863 L17.9723719,44.4293884 L17.9723719,44.4293884 Z M20.9832793,36.0730249 L20.9832793,38.2548431 L24.2560065,38.2548431 L24.2560065,36.0730249 L20.9832793,36.0730249 L20.9832793,36.0730249 Z M12.2560065,30.6184795 C8.64509804,30.6184795 5.710552,33.5530255 5.710552,37.163934 C5.710552,40.7748425 8.64509804,43.7093886 12.2560065,43.7093886 C15.866915,43.7093886 18.8014611,40.7748425 18.8014611,37.163934 C18.8014611,33.5530255 15.866915,30.6184795 12.2560065,30.6184795 L12.2560065,30.6184795 Z M11.1650975,49.1093893 L13.3469156,49.1093893 L13.3469156,45.8912068 L11.1650975,45.8912068 L11.1650975,49.1093893 L11.1650975,49.1093893 Z M3.03782494,44.843935 L4.57600658,46.3821166 L6.52873382,44.4184811 L4.99055217,42.8802994 L3.03782494,44.843935 L3.03782494,44.843935 Z" id="spec-icon-led"></path>
                    </g>
                </g>
            </g>
        </g>
    </g>
</svg>