<?xml version="1.0" encoding="UTF-8" standalone="no"?>
<svg width="27px" height="41px" viewBox="0 0 27 41" version="1.1" xmlns="http://www.w3.org/2000/svg" xmlns:xlink="http://www.w3.org/1999/xlink">
    <!-- Generator: Sketch 40.2 (33826) - http://www.bohemiancoding.com/sketch -->
    <title>spec-icon-heat</title>
    <desc>Created with Sketch.</desc>
    <defs></defs>
    <g id="Page-1" stroke="none" stroke-width="1" fill="none" fill-rule="evenodd">
        <g id="inferno-comp-02b" transform="translate(-309.000000, -6659.000000)" fill="#FF7A00">
            <g id="tech" transform="translate(20.000000, 5583.000000)">
                <g id="tech-features" transform="translate(275.000000, 835.000000)">
                    <g id="heating-cycle" transform="translate(14.000000, 236.000000)">
                        <path d="M23.32178,22.8617096 C23.8491935,24.7517073 24.2695831,26.4358113 23.3902752,27.9958513 C22.5982988,29.4001512 20.6136486,29.058755 20.2643228,27.9421782 C19.7155045,26.188563 22.3003444,25.2118883 21.1641793,18.0953608 C19.6564274,8.6356938 12.7384061,5 12.7384061,5 C12.7384061,5 14.3711618,7.83499648 14.3711618,9.86753585 C14.3711618,17.6070234 0,19.1802617 0,31.7151344 C0,43.0322432 10.1801081,45.3278689 10.1801081,45.3278689 C9.22888015,44.6459563 6.6406155,43.377159 6.14231248,38.3266066 C5.36403508,30.4577756 13.8146378,26.0002672 13.8146378,26.0002672 C13.8146378,26.0002672 11.409598,28.4692306 12.7324127,31.725693 C14.1425589,35.2056468 17.4722847,34.6108431 19.9278398,37.091245 C22.3833949,39.5760464 20.3619285,44.1347418 20.3619285,44.1347418 C20.3619285,44.1347418 26.8852459,39.961437 26.8852459,32.7718789 C26.8852459,25.5814409 23.32178,22.8617096 23.32178,22.8617096" id="spec-icon-heat"></path>
                    </g>
                </g>
            </g>
        </g>
    </g>
</svg>