<?xml version="1.0" encoding="UTF-8" standalone="no"?>
<svg width="41px" height="36px" viewBox="0 0 41 36" version="1.1" xmlns="http://www.w3.org/2000/svg" xmlns:xlink="http://www.w3.org/1999/xlink">
    <!-- Generator: Sketch 40.2 (33826) - http://www.bohemiancoding.com/sketch -->
    <title>spec-icon-vibration</title>
    <desc>Created with Sketch.</desc>
    <defs></defs>
    <g id="Page-1" stroke="none" stroke-width="1" fill="none" fill-rule="evenodd">
        <g id="inferno-comp-02b" transform="translate(-302.000000, -6545.000000)" fill="#FF7A00">
            <g id="tech" transform="translate(20.000000, 5583.000000)">
                <g id="tech-features" transform="translate(275.000000, 835.000000)">
                    <g id="vibration" transform="translate(7.000000, 120.000000)">
                        <path d="M10.4397001,34.4709572 C7.80135062,31.8326077 6.34886177,28.325812 6.34886177,24.5955566 C6.34886177,20.8653011 7.80135062,17.3585055 10.4397001,14.720156 C11.3151294,13.8447267 12.2934009,13.1127689 13.336425,12.5084116 L12.6958825,11.3987304 C11.5576341,12.0583178 10.4968347,12.8677248 9.54205186,13.8225077 C6.66373698,16.6995529 5.07920369,20.5263024 5.07920369,24.5955566 C5.07920369,28.6648107 6.66373698,32.4915602 9.54205186,35.3686054 C10.4968347,36.3233883 11.5576341,37.1327953 12.6958825,37.7923827 L13.336425,36.6827015 C12.2934009,36.0783443 11.3151294,35.3463864 10.4397001,34.4709572 Z M30.1905013,14.720156 C32.8288508,17.3585055 34.2813396,20.8653011 34.2813396,24.5955566 C34.2813396,28.325812 32.8288508,31.8326077 30.1905013,34.4709572 C29.315072,35.3463864 28.3368005,36.0777095 27.2937764,36.6827015 L27.9343189,37.7923827 C29.0725673,37.1327953 30.1333667,36.3240231 31.0881496,35.3686054 C33.9664644,32.4915602 35.5509977,28.6648107 35.5509977,24.5955566 C35.5509977,20.5263024 33.9664644,16.6995529 31.0881496,13.8225077 C30.1333667,12.86709 29.0725673,12.0583178 27.9343189,11.3987304 L27.2937764,12.5084116 C28.3368005,13.1134037 29.315072,13.8447267 30.1905013,14.720156 Z M23.008109,21.9026118 C23.7280051,22.6225079 24.1241384,23.5779256 24.1241384,24.5955566 C24.1241384,25.6131875 23.7280051,26.5686052 23.008109,27.2885014 C22.7694133,27.5271971 22.5027851,27.7271682 22.2183817,27.891589 L22.8525759,28.990478 C23.2322036,28.7708272 23.5877079,28.5048338 23.9057573,28.1861496 C24.8656188,27.2275578 25.3937965,25.9521862 25.3937965,24.5955566 C25.3937965,23.2389269 24.8656188,21.9635554 23.9057573,21.0049635 C23.5877079,20.6862793 23.2322036,20.420286 22.8525759,20.2006351 L22.2183817,21.2995242 C22.5027851,21.4645797 22.7694133,21.6639161 23.008109,21.9026118 Z M17.6222194,27.2885014 C16.9023233,26.5686052 16.5061899,25.6131875 16.5061899,24.5955566 C16.5061899,23.5779256 16.9023233,22.6225079 17.6222194,21.9026118 C17.8609151,21.6639161 18.1275433,21.4645797 18.4119467,21.2995242 L17.7777525,20.2006351 C17.3981247,20.420286 17.0426205,20.6862793 16.7245711,21.0049635 C15.7647096,21.9635554 15.2365319,23.2389269 15.2365319,24.5955566 C15.2365319,25.9521862 15.7647096,27.2275578 16.7245711,28.1861496 C17.0426205,28.5048338 17.3981247,28.7708272 17.7777525,28.990478 L18.4119467,27.891589 C18.1275433,27.7271682 17.8609151,27.5271971 17.6222194,27.2885014 Z M33.7817927,11.1295629 C37.3793689,14.7265043 39.3606703,19.5086715 39.3606703,24.5955566 C39.3606703,29.6824417 37.3793689,34.4646089 33.7817927,38.0615502 C32.5883141,39.2556637 31.2615214,40.2669463 29.8388695,41.0915892 L30.4736985,42.1911131 C31.9915748,41.3118749 33.4059739,40.2326655 34.6794409,38.9591985 C38.5169825,35.1222918 40.6303284,30.0214404 40.6303284,24.5955566 C40.6303284,19.1696727 38.5169825,14.0688214 34.6794409,10.2319147 C33.4059739,8.9584476 31.9915748,7.87923822 30.4736985,7 L29.8388695,8.0995239 C31.2615214,8.92416683 32.5883141,9.93544949 33.7817927,11.1295629 Z M6.84853571,38.0615502 C3.25095953,34.4646089 1.26965809,29.6824417 1.26965809,24.5955566 C1.26965809,19.5086715 3.25095953,14.7265043 6.84853571,11.1295629 C8.04201431,9.93544949 9.36880701,8.92416683 10.7914589,8.0995239 L10.1566299,7 C8.63875361,7.87923822 7.2243545,8.9584476 5.95088744,10.2319147 C2.11334588,14.0688214 0,19.1696727 0,24.5955566 C0,30.0214404 2.11334588,35.1222918 5.95088744,38.9591985 C7.2243545,40.2326655 8.63875361,41.3118749 10.1566299,42.1911131 L10.7914589,41.0915892 C9.36880701,40.2669463 8.04201431,39.2556637 6.84853571,38.0615502 Z M26.5993369,18.3113839 C28.2778249,19.9905067 29.2027708,22.2219308 29.2027708,24.5955566 C29.2027708,26.9691824 28.2784597,29.2012413 26.5993369,30.8797293 C26.0425918,31.4371092 25.4198245,31.9024389 24.7557933,32.2871453 L25.3906224,33.3860343 C26.1492431,32.9460978 26.8602516,32.4141111 27.4969851,31.7773775 C29.4160733,29.859559 30.4724289,27.3081811 30.4724289,24.5955566 C30.4724289,21.8829321 29.4160733,19.3315542 27.4969851,17.4137356 C26.8602516,16.7770021 26.1492431,16.2450153 25.3906224,15.8050788 L24.7557933,16.9039679 C25.4198245,17.2886743 26.0425918,17.754004 26.5993369,18.3113839 Z M14.0309915,30.8797293 C12.3525035,29.2006064 11.4275576,26.9691824 11.4275576,24.5955566 C11.4275576,22.2219308 12.3518687,19.9898719 14.0309915,18.3113839 C14.5883714,17.7546388 15.2105039,17.2886743 15.874535,16.9039679 L15.239706,15.8050788 C14.4810853,16.2450153 13.7700768,16.7770021 13.1333432,17.4137356 C11.214255,19.3315542 10.1578995,21.8829321 10.1578995,24.5955566 C10.1578995,27.3081811 11.214255,29.859559 13.1333432,31.7773775 C13.7700768,32.4141111 14.4810853,32.9460978 15.239706,33.3860343 L15.874535,32.2871453 C15.2105039,31.9024389 14.5877366,31.4371092 14.0309915,30.8797293 Z" id="spec-icon-vibration"></path>
                    </g>
                </g>
            </g>
        </g>
    </g>
</svg>